# xmcd
# 
# Track frame offsets:
#     187
#     17257
#     41187
#     83357
#     96687
#     125120
#     151757
#     171570
#     182140
#     204832
#     227480
#     243542
#     271210
#     294107
#     317027
# 
# Disc length: 4410
# 
# Revision: 1
# Processed by: cddbd v1.5.2PL0 Copyright (c) Steve Scherf et al.
# Submitted via: BonkEnc v1.0.6
# 
DISCID=c411380f
DTITLE=Kenny Clarke-Francy Boland Big Band - two originals "All Blues - Sax No End"
DYEAR=1967
DGENRE=Big Band
TTITLE0=D-Minor Blues
TTITLE1=Open Door - 1st Movement
TTITLE2=Dia-Blue - 2nd Movement
TTITLE3=Total Blues - 3rd Movement
TTITLE4=The Wildman
TTITLE5=The James Are Coming
TTITLE6=At Ronnie's
TTITLE7=The Turk
TTITLE8=Milkshake
TTITLE9=Peter's Waltz
TTITLE10=Griff'n' Jaws
TTITLE11=New Box
TTITLE12=Sax No End
TTITLE13=Griff's Groove
TTITLE14=Lockjaw Blues
EXTD=YEAR: 1967
EXTT0=
EXTT1=
EXTT2=
EXTT3=
EXTT4=
EXTT5=
EXTT6=
EXTT7=
EXTT8=
EXTT9=
EXTT10=
EXTT11=
EXTT12=
EXTT13=
EXTT14=
PLAYORDER=
